<?xml version="1.0" encoding="utf-8"?>
<svg xmlns="http://www.w3.org/2000/svg" viewBox="0 0 500 500">
  <defs>
    <linearGradient id="paint0_linear_82_720" x1="0" y1="11.2502" x2="46.4595" y2="55.1811" gradientUnits="userSpaceOnUse" gradientTransform="matrix(11.363765, 0, 0, 10.250642, -0.002922, -103.81717)">
      <stop stop-color="#2E3687"/>
      <stop offset="1" stop-color="#45B5CA"/>
    </linearGradient>
  </defs>
  <path fill-rule="evenodd" clip-rule="evenodd" d="M 333.212 220.915 C 340.951 221.521 351.463 222.668 363.782 225.014 C 383.476 228.817 406.067 234.064 430.848 247.278 C 452.987 259.14 469.442 276.156 481.566 296.358 C 496.624 321.433 503.226 348.103 498.488 376.6 C 495.045 398.024 485.691 417.173 471.011 434.27 C 456.772 450.98 439.85 464.809 418.885 474.381 C 396.816 484.407 377.599 486.991 371.098 487.677 C 365.258 488.273 359.734 488.497 354.814 488.497 C 347.327 488.497 341.326 487.996 338.178 487.677 C 330.155 486.928 321.859 485.265 316.088 480.203 C 308.065 473.151 304.779 462.48 308.336 452.805 C 312.349 442.102 323.816 434.844 336.563 434.844 C 338.11 434.844 339.688 434.959 341.292 435.175 C 343.975 435.551 347.702 435.923 352.122 435.923 C 353.1 435.923 354.11 435.899 355.19 435.86 C 395.033 434.117 442.725 398.928 441.305 356.54 C 440.705 338.685 432.772 323.338 420.998 308.978 C 404.134 288.619 379.031 282.983 361.155 278.275 C 335.587 271.479 298.587 267.637 302.032 243.794 C 302.166 242.85 302.359 241.907 302.622 240.975 C 305.873 229.279 317.928 220.874 331.61 220.874 C 332.144 220.874 332.68 220.892 333.212 220.915 Z M 255.791 397.645 C 279.03 397.645 297.917 414.661 297.917 435.635 C 297.917 456.617 279.03 473.624 255.791 473.624 C 232.517 473.624 213.665 456.617 213.665 435.635 C 213.665 414.661 232.517 397.656 255.791 397.645 Z M 100.538 341.063 C 101.2 341.063 101.847 341.235 102.392 341.562 C 102.925 341.892 103.347 342.364 103.586 342.898 L 115.326 369.178 C 117.416 373.853 120.551 378.12 124.563 381.676 C 128.564 385.231 133.358 388.019 138.631 389.875 L 168.415 400.291 C 169.028 400.506 169.55 400.883 169.928 401.367 C 170.302 401.847 170.495 402.421 170.495 403.006 C 170.495 403.589 170.292 404.165 169.928 404.647 C 169.55 405.128 169.028 405.508 168.415 405.724 L 138.631 416.147 C 133.358 418.003 128.564 420.791 124.563 424.349 C 120.551 427.906 117.416 432.159 115.326 436.843 L 103.586 463.118 C 103.347 463.661 102.925 464.133 102.392 464.457 C 101.847 464.787 101.2 464.962 100.538 464.962 C 99.881 464.962 99.222 464.787 98.675 464.457 C 98.142 464.133 97.721 463.661 97.484 463.118 L 85.741 436.843 C 83.665 432.159 80.517 427.906 76.505 424.349 C 72.505 420.791 67.709 417.991 62.436 416.147 L 32.857 405.724 C 32.244 405.508 31.709 405.128 31.344 404.647 C 30.97 404.165 30.765 403.589 30.765 403.006 C 30.765 402.421 30.97 401.847 31.344 401.367 C 31.709 400.883 32.244 400.506 32.857 400.291 L 62.436 389.875 C 67.709 388.019 72.505 385.231 76.505 381.676 C 80.517 378.109 83.665 373.864 85.741 369.178 L 97.484 342.898 C 97.721 342.364 98.142 341.892 98.675 341.562 C 99.222 341.235 99.881 341.063 100.538 341.063 Z M 149.789 41.066 C 180.029 41.754 207.825 49.954 232.517 66.211 C 277.099 95.621 294.631 136.274 293.122 184.822 C 292.269 213.155 284.428 240.513 278.938 268.241 C 274.235 292.331 269.077 316.419 265.793 340.735 C 263.622 355.967 267.394 374.172 253.983 383.643 C 250.668 385.98 246.801 387.652 242.62 388.451 C 240.824 388.789 238.985 388.954 237.188 388.954 C 224.62 388.943 212.439 381.143 208.609 368.995 C 207.507 363.684 206.247 355.238 205.995 344.985 C 205.644 334.123 206.563 324.313 216.758 280.255 C 221.814 258.371 224.347 248.797 228.575 227.906 C 229.939 221.212 230.939 215.749 231.756 211.031 C 236.303 186.648 237.826 162.332 226.201 138.777 C 211.87 109.775 179.178 93.468 146.311 93.468 C 126.643 93.478 106.905 99.31 90.995 111.734 C 70.187 127.909 57.801 147.673 58.46 172.902 C 59.063 195.83 71.857 212.479 77.096 218.556 C 98.312 243.25 130.244 249.554 147.199 252.898 C 155.382 254.568 164.21 255.643 170.27 260.883 C 176.836 266.559 180.371 274.648 179.439 282.91 C 177.927 296.051 165.132 306.69 149.63 306.927 C 133.709 305.933 94.426 301.454 57.711 275.087 C 46.437 266.96 18.619 246.355 5.891 209.138 C -1.268 188.163 -1.996 165.14 4.22 140.138 C 10.539 115.076 26.39 94.566 47.095 76.934 C 74.984 53.184 107.881 41.015 145.677 41.015 C 147.03 41.015 148.427 41.036 149.789 41.066 Z M 384.691 80.421 C 385.304 80.421 385.907 80.584 386.418 80.888 C 386.918 81.197 387.317 81.639 387.544 82.141 L 398.486 106.609 C 400.428 110.966 403.36 114.923 407.1 118.243 C 410.84 121.553 415.306 124.159 420.213 125.88 L 447.974 135.576 C 448.545 135.773 449.033 136.13 449.384 136.58 C 449.725 137.023 449.918 137.557 449.918 138.1 C 449.918 138.643 449.725 139.177 449.384 139.626 C 449.033 140.079 448.545 140.436 447.974 140.632 L 420.213 150.329 C 415.306 152.05 410.84 154.654 407.1 157.967 C 403.36 161.285 400.428 165.243 398.486 169.6 L 387.544 194.067 C 387.317 194.569 386.918 195.003 386.418 195.308 C 385.907 195.616 385.304 195.78 384.691 195.78 C 384.077 195.78 383.486 195.616 382.973 195.308 C 382.464 195.003 382.066 194.569 381.839 194.067 L 370.906 169.6 C 368.964 165.243 366.044 161.278 362.303 157.967 C 358.566 154.645 354.099 152.05 349.179 150.329 L 321.6 140.632 C 321.031 140.436 320.531 140.079 320.19 139.626 C 319.837 139.186 319.666 138.643 319.666 138.1 C 319.666 137.557 319.849 137.023 320.19 136.58 C 320.531 136.13 321.031 135.773 321.6 135.576 L 349.179 125.88 C 354.099 124.159 358.566 121.553 362.303 118.243 C 366.032 114.923 368.964 110.966 370.906 106.609 L 381.839 82.141 C 382.066 81.639 382.464 81.197 382.973 80.888 C 383.486 80.584 384.089 80.421 384.691 80.421 Z M 316.224 11.503 C 316.612 11.503 316.997 11.607 317.326 11.813 C 317.645 12.006 317.895 12.293 318.043 12.619 L 324.995 28.478 C 326.235 31.297 328.111 33.862 330.486 36.011 C 332.861 38.166 335.7 39.846 338.826 40.964 L 356.497 47.259 C 356.861 47.382 357.178 47.616 357.395 47.903 C 357.611 48.202 357.726 48.55 357.726 48.898 C 357.726 49.246 357.611 49.596 357.395 49.893 C 357.178 50.18 356.861 50.395 356.497 50.528 L 338.826 56.811 C 335.7 57.931 332.861 59.622 330.486 61.772 C 328.111 63.916 326.235 66.489 324.995 69.308 L 318.043 85.163 C 317.895 85.493 317.645 85.779 317.326 85.973 C 316.997 86.169 316.612 86.273 316.224 86.273 C 315.837 86.273 315.452 86.169 315.122 85.973 C 314.804 85.779 314.553 85.493 314.418 85.163 L 307.45 69.308 C 306.212 66.489 304.349 63.916 301.974 61.772 C 299.597 59.622 296.748 57.931 293.621 56.811 L 276.078 50.528 C 275.712 50.395 275.395 50.18 275.178 49.893 C 274.95 49.596 274.836 49.246 274.836 48.898 C 274.836 48.55 274.961 48.202 275.178 47.903 C 275.395 47.616 275.712 47.382 276.078 47.259 L 293.621 40.964 C 296.748 39.859 299.597 38.166 301.974 36.026 C 304.349 33.873 306.212 31.297 307.45 28.478 L 314.418 12.619 C 314.553 12.293 314.804 12.006 315.122 11.813 C 315.452 11.607 315.837 11.503 316.224 11.503 Z" fill="url(#paint0_linear_82_720)" style="stroke-width: 1;"/>
</svg>