<svg width="71" height="70" viewBox="0 0 71 70" fill="none" xmlns="http://www.w3.org/2000/svg">
<path d="M46.8491 28.03C47.9391 28.12 49.4191 28.3 51.1491 28.67C53.9191 29.26 57.0891 30.08 60.5791 32.14C63.6891 33.99 65.9992 36.64 67.7092 39.79C69.8292 43.7 70.7591 47.85 70.0891 52.29C69.6091 55.63 68.2891 58.61 66.2291 61.28C64.2291 63.88 61.8491 66.04 58.8991 67.53C55.7991 69.09 53.0991 69.49 52.1891 69.6C51.3691 69.69 50.5891 69.73 49.8991 69.73C48.8491 69.73 47.9991 69.65 47.5591 69.6C47.4491 69.59 47.3391 69.58 47.2291 69.56C46.3291 69.45 45.4091 69.24 44.7091 68.66C43.3991 67.57 42.8291 65.78 43.3691 64.17C43.9291 62.5 45.5391 61.37 47.3391 61.37C47.5591 61.37 47.7791 61.39 48.0091 61.42C48.3891 61.48 48.9091 61.54 49.5291 61.54C49.6691 61.54 49.8091 61.54 49.9591 61.54C55.5591 61.27 62.2591 55.78 62.0691 49.18C61.9891 46.4 60.8691 44.01 59.2091 41.77C56.8391 38.6 53.3091 37.72 50.7991 36.99C49.6691 36.66 48.6091 36.44 47.6591 36.3C46.0591 36.07 44.2691 35.94 43.2991 34.64C42.5691 33.66 42.2691 32.39 42.5691 31.17C43.0291 29.35 44.7191 28.04 46.6391 28.04C46.7091 28.04 46.7891 28.04 46.8691 28.04L46.8491 28.03ZM35.9691 55.57C39.2391 55.57 41.8891 58.22 41.8891 61.49C41.8891 64.76 39.2391 67.41 35.9691 67.41C32.6991 67.41 30.0491 64.76 30.0491 61.49C30.0491 58.22 32.6991 55.57 35.9691 55.57ZM21.0691 0C25.3191 0.11 29.2291 1.39 32.6991 3.92C38.9691 8.5 41.4291 14.84 41.2191 22.4C41.0991 26.82 39.9991 31.08 39.2291 35.4C38.5691 39.15 37.8491 42.91 37.3791 46.7C37.2791 47.49 37.2291 48.28 37.2491 49.07C37.2691 49.88 37.3591 50.72 37.0791 51.48C36.5991 52.82 35.4791 53.85 34.1191 54.13C33.8691 54.18 33.6091 54.21 33.3591 54.21C31.5891 54.21 29.8791 52.99 29.3391 51.1C29.1791 50.27 29.0091 48.96 28.9691 47.36C28.9191 45.67 29.0491 44.14 30.4791 37.27C31.1891 33.86 31.5491 32.37 32.1391 29.11C32.3291 28.07 32.4691 27.22 32.5891 26.48C33.2291 22.68 33.4391 18.89 31.8091 15.22C29.7891 10.7 25.1991 8.16 20.5791 8.16C17.8191 8.16 15.0391 9.07 12.7991 11.01C9.87915 13.53 8.13915 16.61 8.22915 20.54C8.30915 24.12 10.1091 26.71 10.8491 27.66C13.8291 31.51 18.3191 32.49 20.6991 33.01C21.8491 33.27 23.0891 33.44 23.9391 34.25C24.8591 35.13 25.3591 36.39 25.2291 37.68C25.0191 39.73 23.2191 41.39 21.0391 41.42C18.7991 41.27 13.2791 40.57 8.11915 36.46C6.53915 35.19 2.61915 31.98 0.829146 26.18C-0.180854 22.91 -0.280854 19.32 0.599146 15.43C1.48915 11.52 3.71915 8.33 6.62915 5.58C10.5591 1.9 15.1891 0 20.4991 0C20.6891 0 20.8891 0 21.0791 0H21.0691Z" fill="url(#paint0_linear_55568_146)"/>
<defs>
<linearGradient id="paint0_linear_55568_146" x1="-3.00086" y1="0.430002" x2="69.3691" y2="70.68" gradientUnits="userSpaceOnUse">
<stop stop-color="#2E3887"/>
<stop offset="1" stop-color="#43B5CA"/>
</linearGradient>
</defs>
</svg>
